<?xml version="1.0" encoding="utf-8"?>
<!-- Generator: Adobe Illustrator 23.0.1, SVG Export Plug-In . SVG Version: 6.00 Build 0)  -->
<svg version="1.1" id="Layer_1" xmlns="http://www.w3.org/2000/svg" xmlns:xlink="http://www.w3.org/1999/xlink" x="0px" y="0px"
	 viewBox="0 0 170 59.3" style="enable-background:new 0 0 170 59.3;" xml:space="preserve">
<style type="text/css">
	.st0{fill:#231F20;}
	.st1{fill:#234EA1;}
	.st2{fill:#1A4697;}
</style>
<g>
	<g>
		<path class="st0" d="M45.2,59c-0.5-0.2-0.8-0.5-1.1-0.8c-0.2-0.3-0.4-0.7-0.4-1c0-0.1,0-0.1,0.1-0.2s0.1-0.1,0.2-0.1h0.6
			c0.1,0,0.2,0.1,0.3,0.2c0.1,0.3,0.3,0.6,0.6,0.8c0.3,0.2,0.8,0.3,1.4,0.3c0.6,0,1.1-0.1,1.5-0.3c0.3-0.2,0.5-0.5,0.5-1
			c0-0.3-0.1-0.5-0.2-0.6c-0.2-0.2-0.4-0.3-0.7-0.4s-0.8-0.3-1.4-0.5c-0.6-0.2-1.1-0.3-1.4-0.5s-0.6-0.4-0.8-0.7
			C44.1,54,44,53.6,44,53.2c0-0.4,0.1-0.8,0.3-1.1c0.2-0.3,0.5-0.6,1-0.8c0.4-0.2,0.9-0.3,1.5-0.3c0.6,0,1.1,0.1,1.5,0.3
			c0.4,0.2,0.7,0.5,1,0.8c0.2,0.3,0.3,0.6,0.4,1c0,0.1,0,0.1-0.1,0.2c0,0-0.1,0.1-0.2,0.1h-0.6c-0.1,0-0.1,0-0.2-0.1
			s-0.1-0.1-0.1-0.2c0-0.3-0.2-0.6-0.5-0.8c-0.3-0.2-0.7-0.3-1.2-0.3c-0.5,0-0.9,0.1-1.2,0.3c-0.3,0.2-0.5,0.5-0.5,0.9
			c0,0.3,0.1,0.5,0.2,0.7c0.1,0.2,0.4,0.3,0.7,0.4c0.3,0.1,0.7,0.3,1.3,0.4c0.6,0.2,1.2,0.4,1.5,0.5s0.6,0.4,0.8,0.7
			c0.2,0.3,0.3,0.6,0.3,1c0,0.7-0.3,1.3-0.8,1.7c-0.5,0.4-1.3,0.6-2.2,0.6C46.2,59.3,45.7,59.2,45.2,59z"/>
		<path class="st0" d="M53.8,59.1c0,0-0.1-0.1-0.1-0.2v-7.5c0-0.1,0-0.2,0.1-0.2c0,0,0.1-0.1,0.2-0.1h0.5c0.1,0,0.2,0,0.2,0.1
			c0,0,0.1,0.1,0.1,0.2v3.2h4v-3.2c0-0.1,0-0.2,0.1-0.2c0,0,0.1-0.1,0.2-0.1h0.5c0.1,0,0.2,0,0.2,0.1c0,0,0.1,0.1,0.1,0.2v7.5
			c0,0.1,0,0.1-0.1,0.2s-0.1,0.1-0.2,0.1H59c-0.1,0-0.1,0-0.2-0.1c0,0-0.1-0.1-0.1-0.2v-3.3h-4v3.3c0,0.1,0,0.1-0.1,0.2
			c-0.1,0-0.1,0.1-0.2,0.1H54C53.9,59.2,53.8,59.2,53.8,59.1z"/>
		<path class="st0" d="M64.2,59.1c0,0-0.1-0.1-0.1-0.2v-7.5c0-0.1,0-0.1,0.1-0.2c0,0,0.1-0.1,0.2-0.1H65c0.1,0,0.1,0,0.2,0.1
			c0,0,0.1,0.1,0.1,0.2v7.5c0,0.1,0,0.1-0.1,0.2c0,0-0.1,0.1-0.2,0.1h-0.6C64.3,59.2,64.3,59.2,64.2,59.1z"/>
		<path class="st0" d="M69.6,59.1c0,0-0.1-0.1-0.1-0.2v-7.5c0-0.1,0-0.2,0.1-0.2c0,0,0.1-0.1,0.2-0.1h2.8c0.9,0,1.6,0.2,2,0.6
			s0.7,1,0.7,1.8c0,0.6-0.1,1.1-0.4,1.4c-0.3,0.4-0.7,0.6-1.2,0.8l1.8,3.1c0,0,0,0.1,0,0.1c0,0.1,0,0.1-0.1,0.2s-0.1,0.1-0.2,0.1
			h-0.5c-0.1,0-0.2,0-0.3-0.1s-0.1-0.1-0.2-0.2l-1.7-2.9h-2v3c0,0.1,0,0.1-0.1,0.2c-0.1,0-0.1,0.1-0.2,0.1h-0.5
			C69.7,59.2,69.6,59.2,69.6,59.1z M72.5,55c1.2,0,1.7-0.5,1.7-1.5s-0.6-1.5-1.7-1.5h-1.9V55H72.5z"/>
		<path class="st0" d="M81,59.1c0,0-0.1-0.1-0.1-0.2v-6.8h-2.2c-0.1,0-0.1,0-0.2-0.1c0,0-0.1-0.1-0.1-0.2v-0.4c0-0.1,0-0.2,0.1-0.2
			c0,0,0.1-0.1,0.2-0.1h5.5c0.1,0,0.1,0,0.2,0.1c0,0,0.1,0.1,0.1,0.2v0.4c0,0.1,0,0.1-0.1,0.2c0,0-0.1,0.1-0.2,0.1H82v6.8
			c0,0.1,0,0.1-0.1,0.2s-0.1,0.1-0.2,0.1h-0.5C81.1,59.2,81.1,59.2,81,59.1z"/>
		<path class="st0" d="M89,59c-0.5-0.2-0.8-0.5-1.1-0.8c-0.2-0.3-0.4-0.7-0.4-1c0-0.1,0-0.1,0.1-0.2s0.1-0.1,0.2-0.1h0.6
			c0.1,0,0.2,0.1,0.3,0.2c0.1,0.3,0.3,0.6,0.6,0.8c0.3,0.2,0.8,0.3,1.4,0.3c0.6,0,1.1-0.1,1.5-0.3c0.3-0.2,0.5-0.5,0.5-1
			c0-0.3-0.1-0.5-0.2-0.6s-0.4-0.3-0.7-0.4c-0.3-0.1-0.8-0.3-1.4-0.5c-0.6-0.2-1.1-0.3-1.4-0.5s-0.6-0.4-0.8-0.7
			c-0.2-0.3-0.3-0.6-0.3-1.1c0-0.4,0.1-0.8,0.3-1.1c0.2-0.3,0.5-0.6,1-0.8s0.9-0.3,1.5-0.3c0.6,0,1.1,0.1,1.5,0.3s0.7,0.5,1,0.8
			c0.2,0.3,0.3,0.6,0.4,1c0,0.1,0,0.1-0.1,0.2c0,0-0.1,0.1-0.2,0.1h-0.6c-0.1,0-0.1,0-0.2-0.1c-0.1,0-0.1-0.1-0.1-0.2
			c0-0.3-0.2-0.6-0.5-0.8C91.4,52.1,91,52,90.5,52c-0.5,0-0.9,0.1-1.2,0.3c-0.3,0.2-0.5,0.5-0.5,0.9c0,0.3,0.1,0.5,0.2,0.7
			c0.1,0.2,0.4,0.3,0.7,0.4c0.3,0.1,0.7,0.3,1.3,0.4c0.6,0.2,1.2,0.4,1.5,0.5s0.6,0.4,0.8,0.7c0.2,0.3,0.3,0.6,0.3,1
			c0,0.7-0.3,1.3-0.8,1.7c-0.5,0.4-1.3,0.6-2.2,0.6C90,59.3,89.4,59.2,89,59z"/>
		<path class="st0" d="M103.1,58.5c-0.5-0.5-0.8-1.3-0.9-2.4c0-0.2,0-0.6,0-1c0-0.4,0-0.7,0-1c0-1,0.3-1.8,0.9-2.4
			c0.6-0.5,1.3-0.8,2.3-0.8s1.7,0.3,2.3,0.8c0.6,0.5,0.9,1.3,0.9,2.4c0,0.4,0,0.8,0,1c0,0.2,0,0.5,0,1c0,1.1-0.3,1.8-0.9,2.4
			c-0.5,0.5-1.3,0.8-2.3,0.8S103.6,59,103.1,58.5z M106.9,57.8c0.4-0.4,0.6-0.9,0.6-1.7c0-0.5,0-0.8,0-0.9c0-0.2,0-0.5,0-0.9
			c0-0.8-0.2-1.3-0.6-1.7c-0.4-0.4-0.9-0.6-1.5-0.6s-1.1,0.2-1.5,0.6s-0.6,0.9-0.6,1.7c0,0.2,0,0.5,0,0.9c0,0.4,0,0.7,0,0.9
			c0,0.8,0.2,1.3,0.6,1.7s0.9,0.6,1.5,0.6C106,58.4,106.5,58.2,106.9,57.8z"/>
		<path class="st0" d="M112.6,59.1c0,0-0.1-0.1-0.1-0.2v-7.5c0-0.1,0-0.2,0.1-0.2c0,0,0.1-0.1,0.2-0.1h0.5c0.1,0,0.1,0,0.2,0
			c0,0,0.1,0.1,0.1,0.1l3.8,5.9v-5.8c0-0.1,0-0.2,0.1-0.2c0,0,0.1-0.1,0.2-0.1h0.5c0.1,0,0.2,0,0.2,0.1c0,0,0.1,0.1,0.1,0.2v7.5
			c0,0.1,0,0.1-0.1,0.2s-0.1,0.1-0.2,0.1h-0.5c-0.1,0-0.2-0.1-0.3-0.2l-3.8-5.8v5.7c0,0.1,0,0.1-0.1,0.2s-0.1,0.1-0.2,0.1h-0.5
			C112.7,59.2,112.7,59.2,112.6,59.1z"/>
		<path class="st0" d="M122.6,59.1c0,0-0.1-0.1-0.1-0.2v-0.7c0-0.1,0-0.1,0.1-0.2s0.1-0.1,0.2-0.1h0.7c0.1,0,0.1,0,0.2,0.1
			c0.1,0,0.1,0.1,0.1,0.2v0.7c0,0.1,0,0.1-0.1,0.2c-0.1,0-0.1,0.1-0.2,0.1h-0.7C122.7,59.2,122.7,59.2,122.6,59.1z M122.7,57.2
			c0,0-0.1-0.1-0.1-0.2v-5.6c0-0.1,0-0.1,0.1-0.2s0.1-0.1,0.2-0.1h0.5c0.1,0,0.1,0,0.2,0.1c0,0,0.1,0.1,0.1,0.2V57
			c0,0.1,0,0.1-0.1,0.2c0,0-0.1,0.1-0.2,0.1h-0.5C122.8,57.3,122.8,57.3,122.7,57.2z"/>
	</g>
</g>
<polygon class="st1" points="63.5,23.8 63.5,23.8 63.5,23.8 "/>
<path class="st0" d="M29,24c-0.9-1.3-2.2-2.4-4.1-3.3c-1.8-0.8-4.3-1.6-7.4-2.1c-2.7-0.6-4.6-1.1-5.6-1.7c-1-0.5-1.5-1.3-1.5-2.3
	c0-1,0.4-1.7,1.1-2.2s1.8-0.7,3.2-0.7c1.2,0,2.3,0.2,3.1,0.7c0.8,0.5,1.3,1,1.5,1.7h9.7c0,0,0-0.1,0-0.1c-0.1-1.5-0.7-2.9-1.8-4.5
	c-1.1-1.5-2.8-2.8-4.9-3.8c-2.1-1-4.7-1.5-7.6-1.5c-2.8,0-5.2,0.4-7.3,1.3S3.7,7.7,2.6,9.3c-1.1,1.6-1.7,3.4-1.7,5.5c0,3,1,5.3,3,7
	c2,1.6,5,2.8,9,3.6c2.1,0.4,3.6,0.8,4.7,1.2s1.9,0.7,2.4,1.2c0.5,0.4,0.7,1,0.7,1.7c0,1-0.5,1.7-1.4,2.3c-1,0.5-2.3,0.8-4.1,0.8
	c-1.5,0-2.7-0.3-3.7-0.8c-0.8-0.5-1.4-1-1.8-1.7H0c0.1,1.7,0.7,3.4,1.8,4.9C3,36.5,4.7,37.8,7,38.7c2.3,0.9,5,1.4,8.2,1.4
	c3,0,5.6-0.4,7.9-1.3c2.3-0.9,4.1-2.1,5.4-3.8c1.3-1.7,1.9-3.6,1.9-5.9C30.4,27,29.9,25.3,29,24z"/>
<path class="st0" d="M168.7,24c-0.9-1.3-2.2-2.4-4.1-3.3c-1.8-0.8-4.3-1.6-7.4-2.1c-2.7-0.6-4.6-1.1-5.6-1.7c-1-0.5-1.5-1.3-1.5-2.3
	c0-1,0.4-1.7,1.1-2.2c0.8-0.5,1.8-0.7,3.2-0.7c1.2,0,2.3,0.2,3.1,0.7c0.8,0.5,1.3,1.1,1.5,1.8h9.6c0-0.1,0.1-0.1,0.1-0.2
	c-0.1-1.5-0.7-2.9-1.8-4.5c-1.1-1.5-2.8-2.8-4.9-3.8c-2.1-1-4.7-1.5-7.6-1.5c-2.8,0-5.2,0.4-7.3,1.3s-3.7,2.2-4.9,3.8
	c-1.1,1.6-1.7,3.4-1.7,5.5c0,3,1,5.3,3,7c2,1.6,5,2.8,9,3.6c2.1,0.4,3.6,0.8,4.7,1.2s1.9,0.7,2.4,1.2c0.5,0.4,0.7,1,0.7,1.7
	c0,1-0.5,1.7-1.4,2.3c-1,0.5-2.3,0.8-4.1,0.8c-1.5,0-2.7-0.3-3.7-0.8c-0.9-0.5-1.6-1.2-2-2c0,0,0,0,0,0h-9.4c0,0.1-0.1,0.1-0.1,0.1
	c0.1,1.8,0.7,3.5,1.8,5c1.2,1.5,2.9,2.8,5.1,3.7c2.3,0.9,5,1.4,8.2,1.4c3,0,5.6-0.4,7.9-1.3c2.3-0.9,4.1-2.1,5.4-3.8
	c1.3-1.7,1.9-3.6,1.9-5.9C170,27,169.6,25.3,168.7,24z"/>
<path class="st2" d="M63.5,23.8l4.8-1.3v17c0,0,0,0,0,0.1h9.6c0,0,0,0,0-0.1V22.5l4.8,1.3L78,19.7v0l-4.8-4.1L78,8.1v0L83,0H63.3
	l9.9,15.6L63.5,23.8z"/>
<path class="st0" d="M92,39.5C92,39.5,92.1,39.4,92,39.5l0-12.1h4.8l5.5,11.9c0,0.1,0.1,0.1,0.1,0.2h9.9c0-0.1,0-0.3-0.1-0.4
	l-6.7-13.2c1.9-0.9,3.4-2.2,4.5-3.8c1.1-1.6,1.6-3.6,1.6-5.9c0-3.6-1.2-6.4-3.7-8.4s-5.9-3-10.3-3H87.4l0,0l-4.6,19l-0.1-0.1v15.7
	c0,0,0,0,0,0.1H92z M92.1,11.9h5.5c1.4,0,2.5,0.4,3.3,1.1c0.7,0.8,1.1,1.8,1.1,3s-0.4,2.2-1.1,3c-0.7,0.7-1.8,1.1-3.3,1.1h-5.5V11.9
	z"/>
<path class="st0" d="M54.2,4.7c0,0,0,0.1,0,0.1v13H42.4v-13c0,0,0-0.1,0-0.1h-9.3c0,0,0,0.1,0,0.1v34.4c0,0,0,0,0,0.1h9.3
	c0,0,0,0,0-0.1V26.1h11.8v13.1c0,0,0,0,0,0.1h9.3c0,0,0,0,0-0.1V23.8l-4.3-19H54.2z"/>
<path class="st0" d="M139.2,4.6h-26.5v8.1h8.5v26.6c0,0.1,0.1,0.1,0.1,0.1h9.4c0-0.1,0.1-0.1,0.1-0.1V12.8h8.5V4.6z"/>
</svg>
