<?xml version="1.0" encoding="utf-8"?>
<!-- Generator: Adobe Illustrator 23.0.1, SVG Export Plug-In . SVG Version: 6.00 Build 0)  -->
<svg version="1.1" id="Layer_1" xmlns="http://www.w3.org/2000/svg" xmlns:xlink="http://www.w3.org/1999/xlink" x="0px" y="0px"
	 viewBox="0 0 210 33.3" style="enable-background:new 0 0 210 33.3;" xml:space="preserve">
<style type="text/css">
	.st0{fill:#1A4697;}
	.st1{fill:#231F20;}
</style>
<g>
	<g>
		<path class="st0" d="M168.1,5.9V1.6V0.4h8.1v1.2v4.3v1.2h-8.1V5.9z M168.1,32.7l0-1.2V10.4l1.2,0h5.8l1.2,0l0,1.2v20l0,1.2l-1.2,0
			h-5.8L168.1,32.7z"/>
		<polygon class="st1" points="65.3,0.5 65.3,4.1 65.3,8.6 65.3,9.8 65.3,31.5 65.3,32.7 66.4,32.7 72.2,32.7 73.4,32.7 73.4,31.5 
			73.4,9.8 73.4,4.1 73.4,0.5 		"/>
		<path class="st0" d="M182,32.7V1.5V0.3h13.3c4.6,0,8.1,1.1,10.6,3.3c2.5,2.2,3.9,5.3,4,9.4c0,0.9,0,2.1,0,3.6c0,1.5,0,2.7,0,3.5
			c-0.3,8.4-5.1,12.7-14.4,12.7h-12.4H182z M195.3,25.7c1.9,0,3.4-0.5,4.3-1.4c0.9-0.9,1.4-2.4,1.5-4.4c0.1-0.9,0.1-2,0.1-3.5
			s0-2.6-0.1-3.4c-0.1-2-0.6-3.4-1.6-4.4c-1-0.9-2.5-1.4-4.4-1.4h-4.4v18.5H195.3z"/>
	</g>
</g>
<path class="st1" d="M27,18.3c-0.8-1.2-2.1-2.3-3.8-3.1c-1.7-0.8-4-1.4-6.9-2c-2.5-0.5-4.3-1-5.2-1.5c-0.9-0.5-1.4-1.2-1.4-2.1
	c0-0.9,0.4-1.6,1.1-2s1.7-0.7,3-0.7c1.1,0,2.1,0.2,2.9,0.7C17.4,8,17.8,8.5,18,9.2h9c0,0,0-0.1,0-0.1c-0.1-1.4-0.6-2.7-1.7-4.1
	c-1.1-1.4-2.6-2.6-4.6-3.5c-2-0.9-4.3-1.4-7.1-1.4c-2.6,0-4.9,0.4-6.8,1.2s-3.5,2-4.5,3.5C1.3,6.2,0.8,7.9,0.8,9.8
	c0,2.8,0.9,5,2.8,6.5c1.8,1.5,4.6,2.6,8.4,3.4c1.9,0.4,3.4,0.8,4.4,1.1c1,0.3,1.8,0.7,2.2,1.1c0.5,0.4,0.7,0.9,0.7,1.6
	c0,0.9-0.4,1.6-1.3,2.1s-2.2,0.8-3.8,0.8c-1.4,0-2.5-0.2-3.4-0.7c-0.7-0.4-1.3-1-1.7-1.6H0c0.1,1.6,0.6,3.1,1.7,4.5
	C2.8,30,4.4,31.1,6.5,32c2.1,0.9,4.6,1.3,7.6,1.3c2.7,0,5.2-0.4,7.3-1.2c2.1-0.8,3.8-2,5-3.5c1.2-1.5,1.8-3.4,1.8-5.5
	C28.2,21.2,27.8,19.6,27,18.3z"/>
<path class="st1" d="M161.8,18.3c-0.8-1.2-2.1-2.3-3.8-3.1c-1.7-0.8-4-1.4-6.9-2c-2.5-0.5-4.3-1-5.2-1.5c-0.9-0.5-1.4-1.2-1.4-2.1
	c0-0.9,0.4-1.6,1.1-2c0.7-0.5,1.7-0.7,3-0.7c1.1,0,2.1,0.2,2.9,0.7c0.8,0.4,1.2,1,1.4,1.6h9c0-0.1,0.1-0.1,0.1-0.2
	c-0.1-1.4-0.6-2.7-1.7-4.1c-1.1-1.4-2.6-2.6-4.6-3.5c-2-0.9-4.3-1.4-7.1-1.4c-2.6,0-4.9,0.4-6.8,1.2c-2,0.8-3.5,2-4.5,3.5
	c-1.1,1.5-1.6,3.2-1.6,5.1c0,2.8,0.9,5,2.8,6.5c1.8,1.5,4.6,2.6,8.4,3.4c1.9,0.4,3.4,0.8,4.4,1.1c1,0.3,1.8,0.7,2.2,1.1
	c0.5,0.4,0.7,0.9,0.7,1.6c0,0.9-0.4,1.6-1.3,2.1c-0.9,0.5-2.2,0.8-3.8,0.8c-1.4,0-2.5-0.2-3.4-0.7c-0.8-0.5-1.5-1.1-1.9-1.8
	c0,0,0,0,0,0h-8.8c0,0.1-0.1,0.1-0.1,0.1c0.1,1.7,0.6,3.2,1.7,4.6c1.1,1.4,2.7,2.6,4.8,3.4c2.1,0.9,4.6,1.3,7.6,1.3
	c2.7,0,5.2-0.4,7.3-1.2c2.1-0.8,3.8-2,5-3.5s1.8-3.4,1.8-5.5C163,21.2,162.6,19.6,161.8,18.3z"/>
<path class="st1" d="M86.9,32.7C86.9,32.7,86.9,32.7,86.9,32.7l0-11.2h4.4l5.1,11c0,0.1,0.1,0.1,0.1,0.2h9.2c0-0.1,0-0.2-0.1-0.4
	l-6.2-12.3c1.8-0.8,3.1-2,4.1-3.5c1-1.5,1.5-3.3,1.5-5.5c0-3.4-1.1-6-3.4-7.8c-2.3-1.8-5.5-2.8-9.5-2.8h-9.5l-4.3,0l0.1,32.3H86.9z
	 M86.9,7.1h5.1c1.3,0,2.3,0.4,3,1.1c0.7,0.7,1,1.6,1,2.8s-0.3,2.1-1,2.8c-0.7,0.7-1.7,1-3,1h-5.1V7.1z"/>
<path class="st1" d="M51.8,0.5c0,0,0,0.1,0,0.1v12H40.8v-12c0,0,0-0.1,0-0.1h-8.6c0,0,0,0.1,0,0.1v31.9c0,0,0,0,0,0.1h8.6
	c0,0,0,0,0-0.1V20.3h10.9v12.2c0,0,0,0,0,0.1h8.6c0,0,0,0,0-0.1v-32h-4H51.8z"/>
<path class="st1" d="M132.2,0.4h-24.6v7.5h7.9v24.7c0,0.1,0.1,0.1,0.1,0.1h8.7c0-0.1,0.1-0.1,0.1-0.1V7.9h7.9V0.4z"/>
</svg>
