<?xml version="1.0" standalone="no"?>
<!DOCTYPE svg PUBLIC "-//W3C//DTD SVG 1.1//EN" "http://www.w3.org/Graphics/SVG/1.1/DTD/svg11.dtd" >
<svg xmlns="http://www.w3.org/2000/svg">
<metadata>Generated by IcoMoon</metadata>
<defs>
<font id="icomoon" horiz-adv-x="1024">
<font-face units-per-em="1024" ascent="960" descent="-64" />
<missing-glyph horiz-adv-x="1024" />
<glyph unicode="&#x20;" horiz-adv-x="512" d="" />
<glyph unicode="&#xe900;" glyph-name="account" d="M580.267 44.8c-2.133 17.067-2.133 32-4.267 49.067-4.267 61.867-14.933 119.467-42.667 174.933-2.133 2.133 0 8.533 2.133 10.667 4.267 8.533 10.667 17.067 14.933 23.467s4.267 12.8-2.133 17.067c-4.267 6.4-8.533 12.8-14.933 19.2 4.267 2.133 6.4 6.4 10.667 8.533 21.333 17.067 44.8 32 66.133 49.067 4.267 2.133 6.4 8.533 6.4 14.933 0 10.667 2.133 21.333 8.533 29.867s10.667 19.2 12.8 29.867c4.267 19.2 6.4 38.4 8.533 59.733 12.8-4.267 14.933 4.267 17.067 12.8 4.267 23.467 10.667 46.933 8.533 72.533 0 17.067 6.4 34.133 6.4 51.2 2.133 25.6 2.133 51.2 0 76.8-2.133 32-6.4 66.133-36.267 87.467 8.533 0 17.067 0 27.733-2.133-14.933 14.933-32 17.067-46.933 17.067-10.667 10.667-17.067 19.2-25.6 27.733 0 0-2.133-2.133-2.133-2.133 2.133-4.267 2.133-8.533 4.267-12.8-10.667 6.4-21.333 10.667-34.133 17.067 0 0-2.133-2.133-2.133-2.133 4.267-4.267 10.667-8.533 14.933-12.8-83.2 21.333-155.733 6.4-209.067-61.867-38.4-49.067-40.533-104.533-17.067-157.867-2.133-8.533-4.267-14.933-4.267-19.2 2.133-23.467 6.4-49.067 10.667-72.533 2.133-8.533 4.267-17.067 17.067-12.8 2.133-19.2 4.267-38.4 8.533-57.6 2.133-12.8 8.533-25.6 14.933-36.267 4.267-8.533 8.533-14.933 6.4-23.467s2.133-14.933 8.533-19.2c8.533-6.4 19.2-12.8 27.733-19.2 14.933-10.667 29.867-23.467 44.8-34.133-2.133-2.133-2.133-4.267-4.267-6.4-19.2-23.467-19.2-25.6 0-49.067 0 0 0-2.133 2.133-2.133 6.4-6.4 4.267-10.667 2.133-19.2-14.933-32-29.867-66.133-34.133-102.4-4.267-44.8-8.533-89.6-12.8-134.4 0 0 0-2.133 0-2.133 21.333-2.133 44.8-4.267 66.133-4.267 23.467 0 46.933 2.133 70.4 6.4 6.4-2.133 4.267 4.267 4.267 10.667zM390.4 332.8c-2.133 10.667-2.133 23.467-4.267 36.267-4.267-6.4-8.533-8.533-10.667-12.8-10.667-14.933-23.467-21.333-40.533-27.733-66.133-25.6-132.267-51.2-198.4-78.933-8.533-4.267-14.933-8.533-21.333-14.933 68.267-106.667 179.2-183.467 307.2-206.933-2.133 8.533-4.267 19.2-4.267 29.867-12.8 91.733-19.2 183.467-27.733 275.2zM887.467 253.867c-61.867 23.467-123.733 49.067-185.6 72.533-21.333 8.533-42.667 17.067-55.467 38.4-2.133 2.133-2.133 4.267-4.267 8.533-2.133-6.4-2.133-8.533-2.133-10.667-4.267-46.933-10.667-91.733-14.933-138.667-4.267-64-10.667-128-21.333-192 128 25.6 236.8 102.4 307.2 209.067-6.4 4.267-12.8 8.533-23.467 12.8z" />
<glyph unicode="&#xe901;" glyph-name="arrow-bottom" d="M934.4 657.067c-21.333 21.333-55.467 21.333-74.667 0l-347.733-347.733-345.6 347.733c-21.333 21.333-55.467 21.333-74.667 0-21.333-21.333-21.333-55.467 0-74.667l384-384c10.667-10.667 23.467-14.933 38.4-14.933s27.733 4.267 38.4 14.933l384 384c17.067 19.2 17.067 53.333-2.133 74.667z" />
<glyph unicode="&#xe902;" glyph-name="arrow-left" d="M281.6 448l398.933 396.8c4.267 4.267 4.267 10.667 0 14.933s-10.667 4.267-14.933 0l-405.333-405.333c-4.267-4.267-4.267-10.667 0-14.933l405.333-405.333c2.133-2.133 4.267-2.133 8.533-2.133s6.4 0 8.533 2.133c4.267 4.267 4.267 10.667 0 14.933l-401.067 398.933z" />
<glyph unicode="&#xe903;" glyph-name="arrow-right" d="M742.4 448l-398.933-396.8c-4.267-4.267-4.267-10.667 0-14.933s10.667-4.267 14.933 0l405.333 405.333c4.267 4.267 4.267 10.667 0 14.933l-405.333 405.333c-2.133 2.133-4.267 2.133-8.533 2.133s-6.4 0-8.533-2.133c-4.267-4.267-4.267-10.667 0-14.933l401.067-398.933z" />
<glyph unicode="&#xe904;" glyph-name="bullet" d="M938.667 654.933c-6.4-8.533-12.8-14.933-19.2-21.333-162.133-166.4-322.133-334.933-482.133-501.333-17.067-17.067-25.6-19.2-42.667-2.133-83.2 85.333-168.533 168.533-253.867 251.733-14.933 14.933-17.067 25.6 0 40.533 29.867 27.733 59.733 57.6 87.467 89.6 12.8 14.933 21.333 14.933 36.267 0 38.4-40.533 81.067-76.8 117.333-117.333 21.333-23.467 34.133-23.467 57.6 0 108.8 115.2 219.733 230.4 330.667 345.6 40.533 42.667 40.533 42.667 85.333 0 21.333-21.333 42.667-40.533 64-61.867 6.4-8.533 12.8-14.933 19.2-23.467z" />
<glyph unicode="&#xe905;" glyph-name="cart" d="M298.667 192c-46.933 0-85.333-38.4-85.333-85.333s38.4-85.333 85.333-85.333 85.333 38.4 85.333 85.333-38.4 85.333-85.333 85.333zM42.667 874.667v-85.333h85.333l153.6-324.267-57.6-104.533c-6.4-10.667-10.667-25.6-10.667-40.533 0-46.933 38.4-85.333 85.333-85.333h512v85.333h-492.8c-6.4 0-10.667 4.267-10.667 10.667 0 2.133 0 4.267 2.133 4.267l38.4 70.4h317.867c32 0 59.733 17.067 74.667 44.8l153.6 277.333c4.267 6.4 4.267 12.8 4.267 21.333 0 23.467-19.2 42.667-42.667 42.667h-633.6l-40.533 83.2h-138.667zM725.333 192c-46.933 0-85.333-38.4-85.333-85.333s38.4-85.333 85.333-85.333 85.333 38.4 85.333 85.333-38.4 85.333-85.333 85.333z" />
<glyph unicode="&#xe906;" glyph-name="checkbox-checked" d="M774.4 874.667h-524.8c-89.6 0-164.267-74.667-164.267-164.267v-524.8c0-91.733 74.667-164.267 164.267-164.267h522.667c91.733 0 164.267 74.667 164.267 164.267v524.8c2.133 89.6-72.533 164.267-162.133 164.267zM795.733 565.333c-117.333-121.6-232.533-241.067-349.867-362.667-10.667-12.8-19.2-12.8-32 0-59.733 61.867-121.6 121.6-183.467 181.333-10.667 10.667-10.667 17.067 0 29.867 21.333 21.333 42.667 42.667 64 64 10.667 10.667 17.067 10.667 25.6 0 27.733-29.867 57.6-55.467 85.333-85.333 14.933-17.067 25.6-17.067 40.533 0 78.933 83.2 160 166.4 238.933 249.6 29.867 32 29.867 32 61.867 0 14.933-14.933 29.867-29.867 46.933-44.8 4.267-4.267 8.533-10.667 12.8-14.933 0-6.4-4.267-12.8-10.667-17.067z" />
<glyph unicode="&#xe907;" glyph-name="checkbox-empty" d="M774.4 832c68.267 0 121.6-55.467 121.6-121.6v-524.8c0-68.267-55.467-121.6-121.6-121.6h-524.8c-66.133 0-121.6 55.467-121.6 121.6v524.8c0 66.133 55.467 121.6 121.6 121.6h524.8zM774.4 874.667h-524.8c-89.6 0-164.267-74.667-164.267-164.267v-524.8c0-91.733 74.667-164.267 164.267-164.267h522.667c91.733 0 164.267 74.667 164.267 164.267v524.8c2.133 89.6-72.533 164.267-162.133 164.267v0z" />
<glyph unicode="&#xe908;" glyph-name="checkbox-unchecked" d="M774.4 874.667h-524.8c-89.6 0-164.267-74.667-164.267-164.267v-524.8c0-91.733 74.667-164.267 164.267-164.267h522.667c91.733 0 164.267 74.667 164.267 164.267v524.8c2.133 89.6-72.533 164.267-162.133 164.267z" />
<glyph unicode="&#xe909;" glyph-name="close-bold" d="M896-10.667c-19.2 0-38.4 6.4-53.333 21.333l-768 768c-29.867 29.867-29.867 76.8 0 106.667s76.8 29.867 104.533 0l768-768c29.867-29.867 29.867-76.8 0-106.667-12.8-14.933-32-21.333-51.2-21.333zM128-10.667c-19.2 0-38.4 6.4-53.333 21.333-29.867 29.867-29.867 76.8 0 106.667l768 768c29.867 29.867 76.8 29.867 104.533 0 29.867-29.867 29.867-76.8 0-106.667l-768-768c-12.8-14.933-32-21.333-51.2-21.333z" />
<glyph unicode="&#xe90a;" glyph-name="close" d="M917.333 21.333c-6.4 0-10.667 2.133-14.933 6.4l-810.667 810.667c-8.533 8.533-8.533 21.333 0 29.867s21.333 8.533 29.867 0l810.667-810.667c8.533-8.533 8.533-21.333 0-29.867-4.267-4.267-8.533-6.4-14.933-6.4zM106.667 21.333c-6.4 0-10.667 2.133-14.933 6.4-8.533 8.533-8.533 21.333 0 29.867l810.667 810.667c8.533 8.533 21.333 8.533 29.867 0s8.533-21.333 0-29.867l-810.667-810.667c-4.267-4.267-8.533-6.4-14.933-6.4z" />
<glyph unicode="&#xe90b;" glyph-name="envelope" d="M130.133 699.733l264.533-230.4-264.533-230.4c-6.4 6.4-10.667 14.933-10.667 25.6v409.6c0 10.667 4.267 19.2 10.667 25.6zM893.867 699.733c6.4-6.4 10.667-14.933 10.667-25.6v-409.6c0-10.667-4.267-19.2-10.667-25.6l-264.533 230.4 264.533 230.4zM603.733 448l249.6-217.6h-682.667l249.6 217.6 91.733-81.067 91.733 81.067zM153.6 742.4c-38.4 0-68.267-29.867-68.267-68.267v-409.6c0-38.4 29.867-68.267 68.267-68.267h716.8c38.4 0 68.267 29.867 68.267 68.267v409.6c0 38.4-29.867 68.267-68.267 68.267h-716.8zM512 411.733l-341.333 296.533h682.667l-341.333-296.533z" />
<glyph unicode="&#xe90c;" glyph-name="minus" d="M853.333 416h-682.667c-17.067 0-32 14.933-32 32s14.933 32 32 32h682.667c17.067 0 32-14.933 32-32s-14.933-32-32-32z" />
<glyph unicode="&#xe90d;" glyph-name="phone" d="M281.6 499.2c59.733-119.467 162.133-217.6 281.6-281.6l93.867 93.867c12.8 12.8 29.867 17.067 42.667 8.533 46.933-17.067 98.133-25.6 153.6-25.6 25.6 0 42.667-17.067 42.667-42.667v-145.067c0-25.6-17.067-42.667-42.667-42.667-401.067 0-725.333 324.267-725.333 725.333 0 25.6 17.067 42.667 42.667 42.667h149.333c25.6 0 42.667-17.067 42.667-42.667 0-51.2 8.533-102.4 25.6-153.6 4.267-12.8 0-29.867-8.533-42.667l-98.133-93.867z" />
<glyph unicode="&#xe90e;" glyph-name="plus" d="M853.333 416h-682.667c-17.067 0-32 14.933-32 32s14.933 32 32 32h682.667c17.067 0 32-14.933 32-32s-14.933-32-32-32zM512 74.667c-17.067 0-32 14.933-32 32v682.667c0 17.067 14.933 32 32 32s32-14.933 32-32v-682.667c0-17.067-14.933-32-32-32z" />
<glyph unicode="&#xe90f;" glyph-name="point-checked" d="M810.667 448c0-164.949-133.718-298.667-298.667-298.667s-298.667 133.718-298.667 298.667c0 164.949 133.718 298.667 298.667 298.667s298.667-133.718 298.667-298.667zM512 913.067c256 0 465.067-209.067 465.067-465.067s-209.067-465.067-465.067-465.067-465.067 209.067-465.067 465.067c0 256 209.067 465.067 465.067 465.067zM512 960c-283.733 0-512-228.267-512-512s228.267-512 512-512 512 228.267 512 512-228.267 512-512 512v0z" />
<glyph unicode="&#xe910;" glyph-name="point" d="M725.333 448c0-117.821-95.513-213.333-213.333-213.333s-213.333 95.513-213.333 213.333c0 117.821 95.513 213.333 213.333 213.333s213.333-95.513 213.333-213.333z" />
<glyph unicode="&#xe911;" glyph-name="question" d="M512 874.667c-234.667 0-426.667-192-426.667-426.667s192-426.667 426.667-426.667 426.667 192 426.667 426.667c0 234.667-192 426.667-426.667 426.667zM548.267 168.533c-10.667-10.667-27.733-17.067-49.067-17.067s-38.4 6.4-49.067 17.067c-10.667 10.667-17.067 27.733-17.067 46.933 0 21.333 6.4 36.267 17.067 46.933s27.733 17.067 49.067 17.067c21.333 0 36.267-6.4 49.067-17.067 10.667-10.667 17.067-27.733 17.067-46.933s-6.4-34.133-17.067-46.933zM672 512c-12.8-19.2-36.267-42.667-72.533-68.267-23.467-17.067-38.4-29.867-44.8-40.533-6.4-8.533-10.667-21.333-10.667-36.267v-23.467h-100.267v27.733c0 23.467 4.267 44.8 14.933 61.867s29.867 36.267 55.467 57.6c25.6 19.2 44.8 34.133 51.2 46.933 8.533 12.8 12.8 25.6 12.8 40.533 0 17.067-6.4 27.733-17.067 36.267-12.8 8.533-29.867 12.8-51.2 12.8-38.4 0-81.067-12.8-128-36.267l-40.533 83.2c55.467 32 115.2 46.933 179.2 46.933 51.2 0 93.867-12.8 123.733-36.267 29.867-25.6 44.8-57.6 44.8-100.267 2.133-27.733-4.267-51.2-17.067-72.533z" />
<glyph unicode="&#xe912;" glyph-name="select" d="M512 192l426.667 469.333h-853.333z" />
<glyph unicode="&#xe913;" glyph-name="shirt-slim" d="M580.267 878.933l40.533 38.4h-217.6l40.533-38.4 68.267-61.867 68.267 61.867zM874.667 768c-2.133 12.8-55.467 34.133-55.467 34.133l-166.4 76.8-78.933-151.467-61.867 89.6-61.867-89.6-78.933 151.467-164.267-76.8c0 0-55.467-21.333-55.467-34.133-4.267-12.8-66.133-384-66.133-384l2.133-241.067 8.533-83.2h98.133l25.6 260.267 25.6 160 10.667 36.267c0 0 51.2-123.733 46.933-270.933-2.133-113.067-12.8-189.867-12.8-189.867s21.333-40.533 221.867-36.267c200.533-4.267 221.867 36.267 221.867 36.267s-10.667 76.8-12.8 189.867c-4.267 147.2 46.933 270.933 46.933 270.933l10.667-36.267 25.6-160 25.6-260.267h98.133l8.533 83.2 2.133 241.067c0 0-61.867 371.2-64 384z" />
<glyph unicode="&#xe914;" glyph-name="shirt-standard" d="M576 876.8l40.533 36.267h-215.467l40.533-36.267 66.133-64 68.267 64zM928 403.2c0 0-61.867 349.867-64 360.533-2.133 12.8-55.467 34.133-55.467 34.133l-160 76.8-78.933-149.333-59.733 89.6-61.867-89.6-78.933 149.333-162.133-76.8c0 0-53.333-21.333-55.467-34.133s-64-360.533-64-360.533l-6.4-247.467 12.8-93.867h98.133l25.6 270.933 25.6 147.2 17.067 36.267c0 0 14.933-149.333 21.333-281.6 4.267-106.667 0-174.933 0-174.933s27.733-40.533 226.133-36.267c198.4-4.267 226.133 36.267 226.133 36.267s-4.267 68.267 0 174.933c6.4 132.267 21.333 281.6 21.333 281.6l17.067-36.267 25.6-147.2 25.6-270.933h96l12.8 93.867-4.267 247.467z" />
<glyph unicode="&#xe915;" glyph-name="social-facebook" d="M85.333 91.733c0-38.4 32-70.4 70.4-70.4h710.4c38.4 0 70.4 32 70.4 70.4v712.533c2.133 38.4-29.867 70.4-68.267 70.4h-712.533c-38.4 0-70.4-32-70.4-70.4v-712.533zM529.067 128v283.733h-70.4v106.667h70.4c0 183.467 8.533 196.267 230.4 196.267v-106.667c-117.333 0-106.667-6.4-106.667-89.6h106.667v-106.667h-106.667v-283.733h-123.733z" />
<glyph unicode="&#xe916;" glyph-name="social-instagram" d="M774.4 874.667h-524.8c-89.6 0-164.267-74.667-164.267-164.267v-524.8c0-91.733 74.667-164.267 164.267-164.267h522.667c91.733 0 164.267 74.667 164.267 164.267v524.8c2.133 89.6-72.533 164.267-162.133 164.267zM821.333 776.533h19.2v-145.067h-145.067v145.067h125.867zM390.4 535.467c27.733 38.4 72.533 61.867 121.6 61.867s93.867-25.6 121.6-61.867c17.067-25.6 27.733-55.467 27.733-87.467 0-83.2-68.267-149.333-149.333-149.333-83.2 0-149.333 68.267-149.333 149.333 0 32 10.667 61.867 27.733 87.467zM855.467 185.6c0-44.8-36.267-81.067-81.067-81.067h-524.8c-44.8 0-81.067 36.267-81.067 81.067v349.867h128c-10.667-27.733-17.067-57.6-17.067-87.467 0-128 104.533-232.533 232.533-232.533s232.533 104.533 232.533 232.533c0 32-6.4 59.733-17.067 87.467h128v-349.867z" />
<glyph unicode="&#xe917;" glyph-name="zoom" d="M691.2 599.467c17.067-168.533-104.533-315.733-273.067-332.8-166.4-17.067-315.733 106.667-332.8 270.933-14.933 168.533 106.667 320 273.067 334.933 168.533 17.067 317.867-104.533 332.8-273.067zM157.867 548.267c10.667-125.867 125.867-221.867 251.733-211.2 128 10.667 224 125.867 211.2 251.733-10.667 130.133-125.867 224-253.867 211.2-125.867-8.533-219.733-123.733-209.067-251.733zM812.8 17.067c-8.533 4.267-17.067 6.4-23.467 12.8-70.4 74.667-138.667 151.467-209.067 226.133-10.667 10.667-8.533 21.333 4.267 27.733 32 19.2 59.733 46.933 81.067 76.8 10.667 12.8 19.2 12.8 32-2.133 61.867-66.133 121.6-132.267 183.467-198.4 8.533-8.533 14.933-17.067 23.467-25.6 12.8-14.933 12.8-29.867-2.133-42.667-23.467-21.333-44.8-42.667-68.267-61.867-6.4-6.4-12.8-8.533-21.333-12.8zM512 554.667h-256c-12.8 0-21.333 8.533-21.333 21.333s8.533 21.333 21.333 21.333h256c12.8 0 21.333-8.533 21.333-21.333s-8.533-21.333-21.333-21.333zM384 426.667c-12.8 0-21.333 8.533-21.333 21.333v256c0 12.8 8.533 21.333 21.333 21.333s21.333-8.533 21.333-21.333v-256c0-12.8-8.533-21.333-21.333-21.333z" />
</font>
</defs>
</svg>
